<?xml version="1.0" encoding="UTF-8"?>
<svg id="Layer_1" data-name="Layer 1" xmlns="http://www.w3.org/2000/svg" version="1.1" viewBox="0 0 1920 1629.7">
  <defs>
    <style>
      .cls-1 {
        fill: #0061af;
      }

      .cls-1, .cls-2, .cls-3 {
        stroke-width: 0px;
      }

      .cls-2 {
        fill: #f26622;
      }

      .cls-3 {
        fill: #c3602f;
      }
    </style>
  </defs>
  <g>
    <rect class="cls-1" x="1071.1" y="383" width="189" height="450" rx="94.5" ry="94.5" transform="translate(-88.6 1002.2) rotate(-45)"/>
    <rect class="cls-2" x="664.8" y="812.3" width="773" height="189" rx="94.5" ry="94.5" transform="translate(-333.3 1009) rotate(-45)"/>
    <path class="cls-1" d="M595.4,584.5h0c-36.9-36.9-36.9-96.7,0-133.6L1008.4,37.9c36.9-36.9,96.7-36.9,133.6,0h0c36.9,36.9,36.9,96.7,0,133.6l-413,413c-36.9,36.9-96.7,36.9-133.6,0Z"/>
    <path class="cls-2" d="M595.4,450.9h0c36.9-36.9,96.7-36.9,133.6,0l184.6,184.6c36.9,36.9,36.9,96.7,0,133.6h0c-36.9,36.9-96.7,36.9-133.6,0l-184.6-184.6c-36.9-36.9-36.9-96.7,0-133.6Z"/>
    <path class="cls-3" d="M597.5,586.6l-4.3-4.3c-35.7-35.7-35.7-93.6,0-129.3l4.3-4.3c35.7-35.7,93.6-35.7,129.3,0l69,69-69,69c-35.7,35.7-93.6,35.7-129.3,0ZM1326.8,635.7l-4.3-4.3c-35.7-35.7-93.6-35.7-129.3,0l-69,69,69,69c35.7,35.7,93.6,35.7,129.3,0l4.3-4.3c35.7-35.7,35.7-93.6,0-129.3Z"/>
  </g>
  <g>
    <path class="cls-1" d="M753.8,1560.6"/>
    <path class="cls-2" d="M836.1,1370.7h42.9v153.9h75.6v36h-118.5v-189.9Z"/>
    <path class="cls-2" d="M1112,1490.2c0,50.4-35.7,73.4-72.7,73.4s-71.2-26.5-71.2-71.1,29.4-73.1,73.7-73.1,70.2,29,70.2,70.7ZM1012.3,1491.7c0,23.5,9.9,41.4,28.2,41.4s27.3-16.7,27.3-41.6-7.8-41.2-27.3-41.2-28.3,21-28.3,41.5Z"/>
    <path class="cls-2" d="M1271.1,1422.7c-.6,8.9-1.2,20.6-1.2,41.1v76.7c0,26.5-5.3,48.2-21,62-15.1,13.1-35.6,16.9-55.9,16.9s-37.2-3.7-49.6-10.6l8.5-32.5c8.6,5,23.8,10.3,39.9,10.3s35.8-10.8,35.8-36.3v-8.9h-.6c-8.1,11.3-21.3,17.8-37.2,17.8-34,0-58.3-27.7-58.3-67.1s28.6-72.7,62.5-72.7,30.8,8.2,37.8,19.6h.6l1.4-16.5h37.2ZM1227,1478.9c0-2.7-.3-5.6-.9-7.9-3-11.3-11.1-19-23.1-19s-28,14.3-28,39.3,10.2,36.6,28,36.6,19.9-7.3,22.8-17.3c.9-3.3,1.2-7.8,1.2-11.4v-20.3Z"/>
    <path class="cls-2" d="M1347.8,1384.4c0,11.9-8.8,21.4-23,21.4s-22.4-9.5-22.3-21.4c0-12.3,8.9-21.5,22.7-21.5s22.5,9.2,22.7,21.5ZM1303.7,1560.6v-137.9h42.9v137.9h-42.9Z"/>
    <path class="cls-2" d="M1380.7,1523.2c7.8,4.8,24.3,10.3,36.8,10.3s18.5-4.4,18.5-11.4-4.4-10.6-20.2-15.9c-28.7-9.4-39.5-25-39.3-41.2,0-25.9,21.9-45.4,56.1-45.4s30.4,3.8,38.8,8l-7.5,29.5c-6.2-3.3-18.2-7.8-29.9-7.8s-16.5,4.2-16.5,11.1,5.5,10.1,22.4,15.9c26.2,8.9,37.1,22.3,37.3,42.5,0,25.7-20.1,44.7-59.6,44.7s-34.1-4.1-44.7-9.7l7.8-30.6Z"/>
    <path class="cls-2" d="M1551,1383.3v39.3h30.9v31.6h-30.9v50c0,16.6,4.1,24.3,16.9,24.3s9.8-.6,12.7-1.3l.3,32.6c-5.5,2-15.8,3.7-27.8,3.7s-25.4-4.8-32.3-12c-8-8.2-11.9-21.3-11.9-40.9v-56.4h-18.3v-31.6h18.3v-29.6l41.9-9.7Z"/>
    <path class="cls-2" d="M1650.7,1384.4c0,11.9-8.8,21.4-23,21.4s-22.4-9.5-22.3-21.4c0-12.3,8.9-21.5,22.7-21.5s22.5,9.2,22.7,21.5ZM1606.6,1560.6v-137.9h42.9v137.9h-42.9Z"/>
    <path class="cls-2" d="M1787.3,1557.1c-7.7,3.6-22.1,6.4-38.4,6.4-44.6,0-72.9-27.3-72.9-70.6s27.6-73.3,78.8-73.3,23.8,2.1,32.7,5.4l-6.7,31.8c-5.2-2.3-12.7-4.4-24-4.4-22.7,0-37.2,16.1-37,38.6,0,25.3,17,38.8,37.7,38.8s18.1-1.8,24.7-4.5l5.1,31.6Z"/>
    <path class="cls-2" d="M1810.7,1523.2c7.8,4.8,24.3,10.3,36.8,10.3s18.5-4.4,18.5-11.4-4.4-10.6-20.2-15.9c-28.7-9.4-39.5-25-39.3-41.2,0-25.9,21.9-45.4,56.1-45.4s30.4,3.8,38.8,8l-7.5,29.5c-6.2-3.3-18.2-7.8-29.9-7.8s-16.5,4.2-16.5,11.1,5.5,10.1,22.4,15.9c26.2,8.9,37.1,22.3,37.3,42.5,0,25.7-20.1,44.7-59.6,44.7s-34.1-4.1-44.7-9.7l7.8-30.6Z"/>
    <g>
      <path class="cls-1" d="M21.5,1516.3c11.4,6.1,29.2,11.9,47.6,11.9s30.2-8.2,30.2-20.7-9.1-18.5-31.8-26.5c-31.7-11.2-52.4-28.5-52.4-56.2s27.2-57,71.8-57,37.3,4.3,48.5,9.6l-9.5,34.4c-7.5-3.6-21.2-9-39.6-9s-27.6,8.7-27.6,18.4,10.5,17.4,35.2,26.7c33.6,12.6,49.2,30,49.2,56.9s-24.3,58.9-76.6,58.9-43.1-5.9-53.6-11.8l8.7-35.5Z"/>
      <path class="cls-1" d="M216.3,1511.8l-13.4,48.8h-44.4l58-189.9h56.2l59.1,189.9h-46.3l-14.6-48.8h-54.6ZM264.5,1479.8l-11.8-40.4c-3.3-11.2-6.6-25.5-9.5-36.6h-.6c-2.8,11.2-5.6,25.6-8.7,36.6l-11.4,40.3h42Z"/>
      <path class="cls-1" d="M517.3,1487.9c-.9-23-1.8-50.4-1.6-78.2h-.8c-6.1,24.3-14,51.3-21.2,73.7l-23.3,74h-33.4l-20.5-73.4c-6.1-22.4-12.4-49.3-17.1-74.4h-.6c-.9,25.8-2,55.1-3.1,78.8l-3.5,72.1h-39.7l12.2-189.9h57.2l18.5,63.5c6,21.8,11.9,45.6,16.1,67.9h.9c5.2-22,11.6-47,18.1-68.2l20.2-63.2h56.2l10.2,189.9h-41.7l-3-72.6Z"/>
      <path class="cls-1" d="M694.7,1370.7h-56.2l-58,189.9h44.4l13.4-48.8h54.6l14.6,48.8h46.3l-59.1-189.9ZM644.6,1479.8l11.4-40.3c3-11,5.9-25.4,8.7-36.6h.6c2.9,11.1,6.3,25.3,9.5,36.6l11.8,40.4h-42Z"/>
    </g>
  </g>
</svg>