<?xml version="1.0" encoding="UTF-8"?>
<svg id="Layer_1" data-name="Layer 1" xmlns="http://www.w3.org/2000/svg" version="1.1" viewBox="0 0 1920 584.7">
  <defs>
    <style>
      .cls-1 {
        fill: #0061af;
      }

      .cls-1, .cls-2, .cls-3 {
        stroke-width: 0px;
      }

      .cls-2 {
        fill: #f26622;
      }

      .cls-3 {
        fill: #c3602f;
      }
    </style>
  </defs>
  <g>
    <rect class="cls-1" x="250.9" y="185.4" width="89.5" height="213" rx="44.7" ry="44.7" transform="translate(-119.8 294.5) rotate(-45)"/>
    <rect class="cls-2" x="58.6" y="388.6" width="366" height="89.5" rx="44.7" ry="44.7" transform="translate(-235.7 297.7) rotate(-45)"/>
    <path class="cls-1" d="M25.7,280.7h0c-17.5-17.5-17.5-45.8,0-63.3L221.2,22c17.5-17.5,45.8-17.5,63.3,0h0c17.5,17.5,17.5,45.8,0,63.3l-195.5,195.5c-17.5,17.5-45.8,17.5-63.3,0Z"/>
    <path class="cls-2" d="M25.7,217.5h0c17.5-17.5,45.8-17.5,63.3,0l87.4,87.4c17.5,17.5,17.5,45.8,0,63.3h0c-17.5,17.5-45.8,17.5-63.3,0l-87.4-87.4c-17.5-17.5-17.5-45.8,0-63.3Z"/>
    <path class="cls-3" d="M26.7,281.8l-2-2c-16.9-16.9-16.9-44.3,0-61.2l2-2c16.9-16.9,44.3-16.9,61.2,0l32.6,32.6-32.6,32.6c-16.9,16.9-44.3,16.9-61.2,0ZM372,305l-2-2c-16.9-16.9-44.3-16.9-61.2,0l-32.6,32.6,32.6,32.6c16.9,16.9,44.3,16.9,61.2,0l2-2c16.9-16.9,16.9-44.3,0-61.2Z"/>
  </g>
  <g>
    <path class="cls-1" d="M1043,363.8"/>
    <path class="cls-2" d="M1104.7,221.4h32.2v115.4h56.7v27h-88.9v-142.4Z"/>
    <path class="cls-2" d="M1311.7,311c0,37.8-26.8,55.1-54.5,55.1s-53.4-19.9-53.4-53.3,22-54.8,55.3-54.8,52.7,21.8,52.7,53ZM1236.9,312.1c0,17.6,7.5,31,21.2,31s20.5-12.6,20.5-31.2-5.9-30.9-20.4-30.9-21.2,15.8-21.2,31.1Z"/>
    <path class="cls-2" d="M1431,260.4c-.5,6.7-.9,15.4-.9,30.8v57.6c0,19.9-4,36.1-15.7,46.5-11.3,9.8-26.7,12.7-41.9,12.7s-27.9-2.8-37.2-7.9l6.4-24.4c6.5,3.7,17.8,7.7,30,7.7s26.8-8.1,26.8-27.2v-6.6h-.4c-6.1,8.5-16,13.4-27.9,13.4-25.5,0-43.7-20.7-43.7-50.3s21.5-54.5,46.9-54.5,23.1,6.2,28.3,14.7h.4l1.1-12.4h27.9ZM1397.9,302.5c0-2.1-.2-4.2-.6-5.9-2.2-8.5-8.4-14.2-17.3-14.2s-21,10.7-21,29.4,7.6,27.5,21,27.5,14.9-5.5,17.1-13c.7-2.5.9-5.8.9-8.5v-15.2Z"/>
    <path class="cls-2" d="M1488.5,231.6c0,9-6.6,16.1-17.3,16.1s-16.8-7.1-16.7-16.1c0-9.2,6.7-16.1,17-16.1s16.9,6.9,17,16.1ZM1455.4,363.8v-103.4h32.2v103.4h-32.2Z"/>
    <path class="cls-2" d="M1513.2,335.8c5.9,3.6,18.2,7.7,27.6,7.7s13.9-3.3,13.9-8.5-3.3-8-15.2-12c-21.5-7.1-29.6-18.8-29.5-30.9,0-19.4,16.4-34,42.1-34s22.8,2.8,29.1,6l-5.6,22.1c-4.7-2.4-13.7-5.8-22.4-5.8s-12.3,3.1-12.3,8.3,4.1,7.6,16.8,11.9c19.6,6.7,27.8,16.8,28,31.8,0,19.3-15.1,33.5-44.7,33.5s-25.6-3-33.5-7.3l5.8-23Z"/>
    <path class="cls-2" d="M1640.9,230.9v29.5h23.1v23.7h-23.1v37.5c0,12.5,3.1,18.2,12.7,18.2s7.3-.4,9.6-1l.3,24.4c-4.2,1.5-11.8,2.8-20.8,2.8s-19.1-3.6-24.2-9c-6-6.1-8.9-16-8.9-30.7v-42.3h-13.7v-23.7h13.7v-22.2l31.5-7.3Z"/>
    <path class="cls-2" d="M1715.7,231.6c0,9-6.6,16.1-17.3,16.1s-16.8-7.1-16.7-16.1c0-9.2,6.7-16.1,17-16.1s16.9,6.9,17,16.1ZM1682.6,363.8v-103.4h32.2v103.4h-32.2Z"/>
    <path class="cls-2" d="M1818.1,361.2c-5.8,2.7-16.6,4.8-28.8,4.8-33.4,0-54.7-20.5-54.7-52.9s20.7-55,59.1-55,17.8,1.5,24.5,4.1l-5,23.9c-3.9-1.7-9.5-3.3-18-3.3-17,0-27.9,12.1-27.8,29,0,19,12.7,29.1,28.3,29.1s13.6-1.4,18.5-3.4l3.8,23.7Z"/>
    <path class="cls-2" d="M1835.6,335.8c5.9,3.6,18.2,7.7,27.6,7.7s13.9-3.3,13.9-8.5-3.3-8-15.2-12c-21.5-7.1-29.6-18.8-29.5-30.9,0-19.4,16.4-34,42.1-34s22.8,2.8,29.1,6l-5.6,22.1c-4.7-2.4-13.7-5.8-22.4-5.8s-12.3,3.1-12.3,8.3,4.1,7.6,16.8,11.9c19.6,6.7,27.8,16.8,28,31.8,0,19.3-15.1,33.5-44.7,33.5s-25.6-3-33.5-7.3l5.8-23Z"/>
    <g>
      <path class="cls-1" d="M493.8,330.5c8.5,4.6,21.9,8.9,35.7,8.9s22.6-6.1,22.6-15.5-6.8-13.9-23.8-19.9c-23.8-8.4-39.3-21.4-39.3-42.2s20.4-42.8,53.9-42.8,28,3.2,36.4,7.2l-7.1,25.8c-5.6-2.7-15.9-6.8-29.7-6.8s-20.7,6.5-20.7,13.8,7.9,13,26.4,20c25.2,9.4,36.9,22.5,36.9,42.6s-18.2,44.2-57.4,44.2-32.3-4.4-40.2-8.9l6.5-26.6Z"/>
      <path class="cls-1" d="M639.9,327.2l-10.1,36.6h-33.3l43.5-142.4h42.1l44.3,142.4h-34.7l-11-36.6h-41ZM676,303.2l-8.9-30.3c-2.4-8.4-5-19.1-7.2-27.4h-.4c-2.1,8.4-4.2,19.2-6.5,27.5l-8.5,30.2h31.5Z"/>
      <path class="cls-1" d="M865.6,309.3c-.7-17.3-1.3-37.8-1.2-58.7h-.6c-4.5,18.2-10.5,38.5-15.9,55.3l-17.4,55.5h-25l-15.3-55c-4.6-16.8-9.3-37-12.9-55.8h-.4c-.7,19.4-1.5,41.4-2.4,59.1l-2.7,54.1h-29.8l9.1-142.4h42.9l13.9,47.6c4.5,16.3,8.9,34.2,12.1,50.9h.7c3.9-16.5,8.7-35.3,13.5-51.1l15.1-47.4h42.1l7.6,142.4h-31.3l-2.2-54.5Z"/>
      <path class="cls-1" d="M998.7,221.4h-42.1l-43.5,142.4h33.3l10.1-36.6h41l11,36.6h34.7l-44.3-142.4ZM961.1,303.2l8.5-30.2c2.3-8.3,4.4-19.1,6.5-27.5h.4c2.2,8.3,4.7,19,7.2,27.4l8.9,30.3h-31.5Z"/>
    </g>
  </g>
</svg>